<svg width="852" height="812" viewBox="0 0 852 812" fill="none" xmlns="http://www.w3.org/2000/svg">
<path fill-rule="evenodd" clip-rule="evenodd" d="M554.81 183.474C555.254 183.732 555.858 183.918 556.571 184.291C558.89 189.87 559.768 191.51 559.313 192.064C558.94 192.519 558.984 192.273 558.764 193.397C558.49 194.928 563.853 201.543 564.676 203.644C565.439 205.409 565.508 207.398 564.868 209.212C563.616 212.781 561.676 216.071 559.159 218.894C557.031 221.285 554.684 222.805 552.649 222.344C550.138 221.796 550.565 219.525 550.938 217.297C551.076 216.502 552.584 214.741 552.468 213.957C551.799 209.492 548.531 205.591 546.134 201.724C544.078 199.81 540.612 197.796 538.692 195.58C535.95 192.377 535.402 188.998 538.84 187.05C539.937 186.425 542.679 183.315 544.116 183.435C546.842 183.655 551.383 181.466 554.81 183.474Z" fill="#202249"/>
<path fill-rule="evenodd" clip-rule="evenodd" d="M462.091 170.671C460.226 175.75 461.679 180.254 465.759 182.19L465.836 182.267L466.335 182.437C466.771 182.607 467.218 182.748 467.673 182.859C472.554 184.307 479.854 185.602 484.318 186.474C502.119 189.875 528.645 191.998 541.105 196.754C545.992 193.167 547.439 186.502 544.242 182.492C530.653 176.013 512.297 167.599 504.598 164.746C502.523 164.06 500.356 163.69 498.17 163.649C509.643 153.303 521.785 142.102 526.507 132.552C529.846 125.788 530.384 116.402 532.709 110.533C513.986 116.018 510.405 104.713 506.967 100.741C504.016 105.064 504.088 104.263 501.099 108.887C491.008 124.521 476.124 146.693 466.001 163.155C464.334 165.542 462.749 168.295 462.091 170.671Z" fill="url(#paint0_linear_2_1496)"/>
<g style="mix-blend-mode:multiply" opacity="0.3">
<path fill-rule="evenodd" clip-rule="evenodd" d="M523.178 172.711C515.544 169.255 508.618 166.249 504.598 164.763C502.523 164.076 500.356 163.706 498.171 163.666C509.643 153.32 521.785 142.118 526.507 132.568C529.847 125.805 530.384 116.419 532.709 110.549C527.434 112.091 523.386 112.305 520.156 111.723L520.661 115.382C506.216 129.771 479.947 163.205 477.501 185.048C486.33 187.105 510.449 190.199 514.321 190.632C515.325 184.159 519.558 178.998 523.178 172.706V172.711ZM510.016 105.036C508.799 103.391 507.877 101.827 506.967 100.774C505.086 103.517 504.433 104.203 503.435 105.525L510.016 105.036Z" fill="#1E2353"/>
</g>
<path fill-rule="evenodd" clip-rule="evenodd" d="M520.847 255.97C523.474 259.618 516.383 277.912 514.656 281.752C513.137 285.153 513.619 287.238 517.222 287.292C520.063 287.336 524.571 283.31 527.319 280.677C532.468 275.74 532.764 270.71 534.261 268.57L536.016 268.022C537.3 267.298 541.095 262.339 541.303 260.463C540.762 258.723 540.108 257.021 539.345 255.367C536.543 250.188 535.929 252.454 532.216 249.289C528.021 252.355 531.009 253.573 520.847 255.97Z" fill="#202249"/>
<path fill-rule="evenodd" clip-rule="evenodd" d="M487.224 193.227C494.902 208.12 514.047 241.703 520.803 256.634C526.759 257.89 532.803 254.44 533.324 249.722C528.975 235.411 521.917 211.845 518.429 204.33C516.126 199.365 511.848 192.739 507.938 187.687C519.301 171.779 537.305 146.748 542.488 132.069C549.562 112.107 541.446 100.708 530.543 94.4385C526.671 92.2059 522.498 95.7824 520.529 93.3962C515.879 102.475 511.678 114.823 508.952 125.931C505.157 141.422 487.06 174.302 485.689 185.355C485.486 187.501 485.865 189.661 486.786 191.609C486.906 192.13 487.049 192.668 487.224 193.227Z" fill="url(#paint1_linear_2_1496)"/>
<path opacity="0.3" fill-rule="evenodd" clip-rule="evenodd" d="M792.151 785.585L268.634 491.052C262.053 488.04 252.313 485.204 245.831 489.159L229.247 499.291C225.913 501.326 214.945 508.068 222.282 512.072C243.868 523.784 727.263 797.259 749.183 809.157C753.329 811.406 759.394 812.212 765.761 811.674C772.128 811.137 778.682 809.414 783.716 806.304L790.341 802.212C795.024 799.316 797.618 796.178 797.865 793.128C798.112 790.078 796.209 787.428 792.151 785.585Z" fill="#955CF1"/>
<path fill-rule="evenodd" clip-rule="evenodd" d="M328.679 11.1354C325.071 9.08381 320.837 8.32132 316.878 9.81887L308.015 13.2802C304.802 29.9288 764.209 793.907 768.317 798.142L776.225 795.158C781.419 793.112 784.139 787.708 784.901 782.453L851.664 326.64C851.664 326.64 851.664 326.602 851.664 326.591C852.761 318.911 850.447 310.941 846.235 304.539C843.965 301.089 840.981 297.923 837.318 295.938L328.679 11.1354Z" fill="url(#paint2_linear_2_1496)"/>
<path fill-rule="evenodd" clip-rule="evenodd" d="M828.592 299.311L319.954 14.4869C310.335 9.15503 301.171 14.273 299.476 25.8804L232.713 481.726C231.013 493.334 237.413 507.08 247.032 512.412L755.67 797.215C765.289 802.547 774.475 797.439 776.175 785.832L842.933 330.014C844.633 318.384 838.211 304.67 828.592 299.311Z" fill="url(#paint3_linear_2_1496)"/>
<path fill-rule="evenodd" clip-rule="evenodd" d="M828.593 299.311L319.954 14.4869C310.335 9.15503 301.171 14.273 299.477 25.8804L297.223 41.2398L840.658 345.527L842.934 329.975C844.634 318.384 838.212 304.67 828.593 299.311Z" fill="#4A9FF8"/>
<path fill-rule="evenodd" clip-rule="evenodd" d="M316.79 25.853C320.628 26.7361 323.612 31.3385 323.409 36.1163C323.206 40.8942 319.916 44.0649 316.06 43.1817C312.205 42.2985 309.238 37.6962 309.441 32.9183C309.644 28.1404 312.934 24.9698 316.79 25.853Z" fill="#5858F0"/>
<path fill-rule="evenodd" clip-rule="evenodd" d="M334.361 35.9463C338.199 36.8294 341.177 41.4318 340.974 46.2042C340.772 50.9766 337.481 54.1527 333.626 53.2695C329.77 52.3864 326.803 47.784 327.006 43.0116C327.209 38.2392 330.5 35.0631 334.361 35.9463Z" fill="#5858F0"/>
<path fill-rule="evenodd" clip-rule="evenodd" d="M353.358 47.027C357.196 47.9102 360.18 52.5125 359.977 57.2904C359.774 62.0683 356.484 65.2389 352.623 64.3558C348.762 63.4726 345.806 58.8703 346.009 54.0924C346.212 49.3145 349.519 46.1439 353.358 47.027Z" fill="#5858F0"/>
<path style="mix-blend-mode:multiply" opacity="0.5" fill-rule="evenodd" clip-rule="evenodd" d="M766.737 457.327L675.367 407.151C670.064 404.216 664.876 403.799 660.56 405.505C654.999 407.7 650.842 413.295 649.641 421.49L639.287 495.819C637.148 510.405 645.188 527.679 657.275 534.387L748.651 584.558C760.743 591.261 772.282 584.843 774.426 570.257L784.78 495.929C786.897 481.304 778.824 464.03 766.737 457.327Z" fill="url(#paint4_linear_2_1496)"/>
<path style="mix-blend-mode:multiply" opacity="0.5" fill-rule="evenodd" clip-rule="evenodd" d="M632.981 195.915L833.32 293.656L828.017 299.075L808.79 433.509C806.826 447.299 796.335 453.41 785.384 447.146L597.86 339.898L581.573 303.573L632.981 195.915Z" fill="url(#paint5_linear_2_1496)"/>
<path style="mix-blend-mode:multiply" opacity="0.5" fill-rule="evenodd" clip-rule="evenodd" d="M381.403 403.327L257.545 334.654L253.404 340.974L233.069 479.543L361.353 550.668C374.932 558.194 387.891 550.986 390.293 534.607L401.645 446.652C404.047 430.289 394.982 410.854 381.403 403.327Z" fill="url(#paint6_linear_2_1496)"/>
<path fill-rule="evenodd" clip-rule="evenodd" d="M375.925 433.712L361.118 530.953L363.465 531.239L369.87 528.748C376.895 526.005 380.581 518.666 381.612 511.557L392.492 427.239C392.494 427.215 392.494 427.191 392.492 427.168C393.967 416.794 390.847 405.999 385.143 397.332C382.078 392.664 378.014 388.385 373.078 385.697L116.374 243.354C111.487 240.578 105.767 239.547 100.409 241.571L94.7608 243.765C91.92 244.862 91.0371 245.685 91.059 245.866C93.7188 270.726 379.681 408.221 375.925 433.712Z" fill="#D0E7FF"/>
<path fill-rule="evenodd" clip-rule="evenodd" d="M366.64 388.237L109.919 245.893C104.21 242.734 98.627 242.284 93.9601 244.105C87.9769 246.437 83.4964 252.493 82.2076 261.313L71.3217 345.637C69.0239 361.342 77.6778 379.943 90.6916 387.156L347.418 529.5C360.438 536.713 372.859 529.802 375.162 514.102L386.043 429.773C388.346 414.074 379.681 395.456 366.64 388.237Z" fill="url(#paint7_linear_2_1496)"/>
<path opacity="0.5" fill-rule="evenodd" clip-rule="evenodd" d="M363.596 414.48L186.422 317.002C185.855 316.647 185.216 316.424 184.551 316.35C183.887 316.276 183.214 316.353 182.583 316.574C181.152 317.123 180.082 318.582 179.775 320.688L178.821 326.613C178.273 330.365 180.34 334.841 183.45 336.536L360.624 434.014C363.739 435.736 366.706 434.085 367.254 430.333L368.236 424.414C368.784 420.662 366.706 416.186 363.596 414.485V414.48ZM264.932 437.42C268.042 439.142 270.12 443.591 269.566 447.349L268.59 453.268C268.042 457.02 265.075 458.671 261.96 456.948L172.854 408.972C169.739 407.244 167.672 402.795 168.22 399.043L169.202 393.13C169.509 391.018 170.578 389.57 172.01 389.016C172.64 388.794 173.313 388.716 173.977 388.789C174.642 388.862 175.281 389.084 175.849 389.438L264.932 437.42ZM358.293 450.695C361.403 452.417 363.481 456.866 362.927 460.624L361.951 466.537C361.403 470.295 358.436 471.946 355.321 470.223L178.152 372.746C175.037 371.023 172.969 366.575 173.518 362.823L174.499 356.904C174.807 354.792 175.876 353.344 177.307 352.79C177.938 352.567 178.61 352.49 179.275 352.563C179.94 352.636 180.579 352.858 181.146 353.212L358.293 450.695Z" fill="#FFFCF1"/>
<path opacity="0.5" fill-rule="evenodd" clip-rule="evenodd" d="M129.958 315.28C121.578 310.633 112.688 316.898 112.781 328.993C112.82 335.274 115.485 341.731 119.68 345.785C120.7 346.773 121.841 347.628 123.075 348.33C131.438 352.965 140.284 346.684 140.224 334.616C140.224 328.33 137.559 321.84 133.38 317.803C132.355 316.803 131.205 315.94 129.958 315.236V315.28ZM121.88 354.04C120.222 353.101 118.691 351.954 117.322 350.628C111.668 345.198 108.125 336.492 108.038 328.044C107.939 311.785 119.867 303.36 131.126 309.575C132.813 310.523 134.368 311.691 135.749 313.047C141.386 318.467 144.929 327.167 144.968 335.62C145.039 351.835 133.127 360.272 121.88 354.04ZM160.241 340.217C162.199 341.314 163.367 344.161 162.84 346.618L160.789 356.147C160.268 358.571 158.256 359.663 156.292 358.577L155.289 358.028C154.96 357.826 154.593 357.695 154.211 357.641C153.829 357.587 153.44 357.612 153.068 357.715C152.696 357.818 152.349 357.996 152.049 358.239C151.749 358.481 151.502 358.783 151.324 359.125C150.766 360.06 150.156 360.963 149.497 361.83C148.477 363.168 148.313 365.313 149.092 367.222L149.64 368.517C150.649 370.98 150.046 373.783 148.307 374.726L141.408 378.451C140.973 378.677 140.487 378.786 139.997 378.769C139.507 378.752 139.03 378.608 138.612 378.352C137.587 377.729 136.799 376.781 136.374 375.659L135.826 374.397C135.41 373.291 134.638 372.355 133.632 371.737C133.131 371.451 132.563 371.306 131.987 371.314C131.011 371.314 130.018 371.281 129.042 371.193C127.462 371.04 126.146 372.159 125.751 374.019L125.488 375.264C124.94 377.688 122.949 378.78 120.986 377.694L113.308 373.432C111.345 372.334 110.182 369.487 110.703 367.057L110.972 365.818C111.155 364.849 111.114 363.852 110.854 362.901C110.593 361.951 110.12 361.072 109.469 360.332C108.641 359.422 107.868 358.478 107.1 357.507C106.706 356.977 106.208 356.532 105.636 356.202C105.226 355.952 104.758 355.811 104.278 355.792C103.798 355.774 103.322 355.879 102.894 356.097L101.994 356.558C101.56 356.786 101.074 356.898 100.583 356.882C100.093 356.865 99.6155 356.722 99.1974 356.465C98.1697 355.845 97.3812 354.896 96.9598 353.771L92.8632 344.002C91.8597 341.544 92.4629 338.736 94.1959 337.798L95.1117 337.304C96.4608 336.569 97.1518 334.72 96.8667 332.658C96.6802 331.347 96.554 330.036 96.4718 328.719C96.3456 326.69 95.2708 324.764 93.7681 323.93L92.7645 323.382C90.8012 322.285 89.6386 319.449 90.1596 317.013L92.2107 307.49C92.7591 305.027 94.7498 303.941 96.7131 305.027L97.7166 305.576C98.0451 305.779 98.4121 305.912 98.7945 305.967C99.1769 306.022 99.5665 305.997 99.9389 305.894C100.311 305.791 100.658 305.612 100.958 305.369C101.258 305.125 101.504 304.822 101.682 304.479C102.239 303.544 102.849 302.641 103.508 301.774C104.522 300.463 104.687 298.324 103.903 296.404L103.354 295.115C102.356 292.63 102.954 289.849 104.698 288.883L111.591 285.153C112.027 284.927 112.513 284.818 113.003 284.835C113.493 284.852 113.97 284.996 114.388 285.252C115.416 285.872 116.204 286.821 116.626 287.945L117.174 289.234C117.588 290.34 118.361 291.274 119.368 291.889C119.867 292.179 120.436 292.327 121.013 292.317C121.998 292.29 122.983 292.323 123.964 292.416C125.537 292.592 126.848 291.478 127.254 289.613L127.523 288.368C128.071 285.916 130.067 284.824 132.025 285.916L139.703 290.178C141.661 291.275 142.829 294.117 142.297 296.574L142.034 297.814C141.849 298.775 141.887 299.766 142.145 300.71C142.403 301.654 142.873 302.527 143.52 303.261C144.348 304.172 145.165 305.131 145.905 306.124C146.298 306.656 146.796 307.101 147.37 307.43C147.78 307.678 148.248 307.818 148.727 307.837C149.207 307.855 149.683 307.751 150.112 307.534L151.022 307.04C151.458 306.815 151.944 306.707 152.434 306.725C152.924 306.743 153.401 306.888 153.819 307.145C154.846 307.763 155.635 308.71 156.056 309.833L160.054 319.602C161.052 322.087 160.455 324.874 158.716 325.839L157.8 326.327C156.451 327.063 155.76 328.911 156.051 330.952C156.232 332.257 156.369 333.574 156.451 334.885C156.572 336.92 157.647 338.84 159.149 339.674L160.241 340.217Z" fill="#FFFCF1"/>
<path style="mix-blend-mode:multiply" opacity="0.5" fill-rule="evenodd" clip-rule="evenodd" d="M352.442 81.7668L297.053 54.9756L275.182 191.856L272.369 211.088L329.952 242.18C339.96 247.725 349.513 242.416 351.285 230.336L367.348 113.709C369.135 101.635 362.45 87.3182 352.442 81.7668Z" fill="url(#paint8_linear_2_1496)"/>
<path fill-rule="evenodd" clip-rule="evenodd" d="M345.68 114.323L328.411 225.899L330.22 226.118L335.156 224.204C340.552 222.081 343.382 216.453 344.183 210.984L358.442 109.348C358.444 109.33 358.444 109.311 358.442 109.293C359.571 101.317 357.175 93.0122 352.787 86.3527C350.429 82.7597 347.303 79.4684 343.514 77.4004L237.556 19.8025C233.799 17.6687 229.395 16.8787 225.277 18.4311L220.933 20.1262C218.74 20.949 218.071 21.6072 218.087 21.7444C220.138 40.8504 348.565 94.7181 345.68 114.323Z" fill="#D0E7FF"/>
<path fill-rule="evenodd" clip-rule="evenodd" d="M338.551 79.3534L232.598 21.7555C228.211 19.3254 223.911 18.9798 220.325 20.3786C215.723 22.1724 212.279 26.8296 211.287 33.6152L197.028 135.256C195.262 147.324 201.914 161.631 211.923 167.182L317.881 224.78C327.89 230.326 337.443 225.01 339.214 212.937L353.473 111.296C355.239 99.2164 348.559 84.8992 338.551 79.3534Z" fill="url(#paint9_linear_2_1496)"/>
<path fill-rule="evenodd" clip-rule="evenodd" d="M318.923 197.577L212.471 140.424C210.014 139.107 207.673 140.462 207.196 143.512C206.729 146.463 208.325 149.93 210.782 151.252L317.228 208.405C319.68 209.722 322.076 208.405 322.553 205.334C323.009 202.393 321.374 198.899 318.923 197.577ZM323.678 166.639C326.129 167.955 327.769 171.455 327.308 174.395C326.831 177.445 324.44 178.784 321.983 177.462L215.542 120.314C213.086 118.992 211.49 115.519 211.95 112.574C212.427 109.524 214.775 108.185 217.232 109.485L323.678 166.639ZM334.646 96.4736L228.2 39.3255C225.743 38.0035 223.396 39.3639 222.94 42.3097L221.739 49.8742C221.284 52.8199 222.88 56.2922 225.332 57.6142L331.778 114.762C334.224 116.079 336.615 114.762 337.081 111.8L338.26 104.23C338.726 101.295 337.081 97.7956 334.629 96.4736H334.646ZM328.482 135.969C330.933 137.286 332.578 140.736 332.123 143.682C331.635 146.781 329.255 148.07 326.804 146.743L220.357 89.5893C217.901 88.2783 216.299 84.8498 216.754 81.9096C217.242 78.8103 219.584 77.5212 222.036 78.8157L328.482 135.969Z" fill="#FFFCF1"/>
<path fill-rule="evenodd" clip-rule="evenodd" d="M761.922 491.951L749.309 569.654L751.272 569.895L756.63 567.816C762.504 565.501 765.586 559.385 766.447 553.438L775.77 486.515C775.772 486.495 775.772 486.475 775.77 486.455C776.998 477.782 774.393 468.753 769.622 461.507C767.055 457.607 763.683 454.025 759.537 451.775L677.275 406.613C673.19 404.293 668.408 403.432 663.922 405.121L659.2 406.964C656.825 407.858 656.09 408.572 656.107 408.72C658.355 429.521 765.037 470.635 761.922 491.951Z" fill="#D0E7FF"/>
<path fill-rule="evenodd" clip-rule="evenodd" d="M754.146 453.926L671.885 408.758C667.114 406.114 662.441 405.741 658.536 407.261C653.535 409.214 649.762 414.277 648.715 421.649L639.392 488.572C637.472 501.705 644.706 517.256 655.592 523.296L737.853 568.458C748.739 574.492 759.126 568.716 761.051 555.584L770.374 488.66C772.298 475.528 765.032 459.96 754.146 453.926Z" fill="white"/>
<path fill-rule="evenodd" clip-rule="evenodd" d="M718.319 458.567C718.928 459.749 719.165 461.087 718.999 462.407C718.666 464.086 718.165 465.727 717.501 467.305L699.952 515.994C699.404 517.64 698.856 518.858 698.494 519.747C698.356 520.121 698.145 520.465 697.873 520.757C697.601 521.049 697.273 521.284 696.909 521.447C696.3 521.716 695.461 521.529 694.381 520.86C691.754 519.214 690.591 516.932 690.92 514.146C691.274 512.42 691.758 510.724 692.368 509.072L709.846 460.355C710.745 457.771 711.535 456.098 712.198 455.325C712.862 454.551 713.937 454.633 715.417 455.544C716.649 456.257 717.649 457.31 718.297 458.578L718.319 458.567ZM722.996 471.183L721.39 484.727L747.286 514.766L718.258 511.09L716.646 524.689L758.413 527.98L759.784 516.461L722.985 471.211L722.996 471.183ZM649.992 460.854L686.79 506.148L688.403 492.549L662.628 462.319L691.518 466.241L693.163 452.527L651.385 449.192L649.992 460.854Z" fill="url(#paint10_linear_2_1496)"/>
<path fill-rule="evenodd" clip-rule="evenodd" d="M438.964 461.622C440.439 451.507 448.144 447.042 456.162 451.66L575.375 518.902C583.388 523.521 588.696 535.484 587.216 545.6L571.361 653.549C569.88 663.659 562.17 668.124 554.157 663.511L434.944 596.269C426.921 591.645 421.623 579.687 423.104 569.571L438.964 461.622Z" fill="white"/>
<path fill-rule="evenodd" clip-rule="evenodd" d="M453.47 571.656L495.056 514.036L503.117 575.134L523.375 553.109L535.309 618.442L453.47 571.656Z" fill="url(#paint11_linear_2_1496)"/>
<path fill-rule="evenodd" clip-rule="evenodd" d="M521.977 516.592C526.419 517.497 529.77 522.703 529.452 528.222C529.134 533.74 525.273 537.476 520.825 536.57C516.378 535.665 513.032 530.46 513.345 524.941C513.658 519.423 517.529 515.687 521.977 516.592Z" fill="#FFDB59"/>
<path opacity="0.2" fill-rule="evenodd" clip-rule="evenodd" d="M448.644 477.069C449.878 468.666 456.272 464.952 462.936 468.797L561.989 524.64C568.647 528.48 573.056 538.419 571.828 546.823L558.666 636.511C557.437 644.915 551.026 648.623 544.369 644.789L445.321 588.919C438.652 585.079 434.254 575.139 435.482 566.736L448.644 477.069Z" fill="url(#paint12_linear_2_1496)"/>
<path fill-rule="evenodd" clip-rule="evenodd" d="M599.851 555.09C601.326 544.974 609.031 540.509 617.049 545.128L736.262 612.369C744.274 616.988 749.583 628.952 748.102 639.067L732.248 747.011C730.767 757.121 723.056 761.586 715.044 756.967L595.831 689.753C587.808 685.129 582.51 673.171 583.991 663.055L599.851 555.09Z" fill="white"/>
<path fill-rule="evenodd" clip-rule="evenodd" d="M614.356 665.124L655.942 607.504L664.004 668.601L684.262 646.577L696.196 711.91L614.356 665.124Z" fill="url(#paint13_linear_2_1496)"/>
<path fill-rule="evenodd" clip-rule="evenodd" d="M682.864 610.06C687.306 610.965 690.657 616.171 690.338 621.689C690.02 627.208 686.16 630.943 681.712 630.038C677.264 629.133 673.919 623.927 674.237 618.409C674.555 612.89 678.416 609.155 682.864 610.06Z" fill="#FFDB59"/>
<path opacity="0.2" fill-rule="evenodd" clip-rule="evenodd" d="M609.536 570.537C610.764 562.133 617.159 558.419 623.794 562.265L722.848 618.129C729.506 621.969 733.915 631.909 732.687 640.313L719.525 730.001C718.296 738.404 711.891 742.113 705.228 738.278L606.174 682.408C599.505 678.569 595.107 668.629 596.336 660.23L609.536 570.537Z" fill="url(#paint14_linear_2_1496)"/>
<path fill-rule="evenodd" clip-rule="evenodd" d="M419.6 12.5671C408.988 18.7932 414.072 33.1872 423.713 48.404C437.39 69.9895 404.283 94.2903 449.285 106.583C444.596 93.4181 464.092 88.5854 473.684 70.5929C484.74 49.8357 478.62 29.0182 464.405 11.2835C452.839 -3.15433 431.681 -2.97331 419.6 12.5671Z" fill="url(#paint15_linear_2_1496)"/>
<path fill-rule="evenodd" clip-rule="evenodd" d="M440.609 148.975L443.203 158.762C444.021 160.857 444.509 161.422 447.519 160.062C449.165 159.266 448.616 155.838 448.188 153.336C447.789 151.293 447.829 149.187 448.304 147.16C448.641 146.122 449.302 145.22 450.19 144.587C451.989 143.144 454.095 142.179 452.801 137.588C452.121 135.19 452.285 133.402 452.252 130.917L445.978 130.5C446.126 136.101 443.642 139.875 441.043 144.582C439.781 146.858 440.056 146.43 440.609 148.975Z" fill="url(#paint16_linear_2_1496)"/>
<path fill-rule="evenodd" clip-rule="evenodd" d="M462.935 86.8629L462.891 86.5502C462.882 86.0957 462.816 85.6441 462.694 85.2063C461.098 74.5644 457.862 56.6323 455.34 47.2795C450.952 30.9436 436.962 36.5882 437.105 46.336C437.242 55.5571 445.819 75.5244 447.794 84.186C447.092 90.4888 444.459 121.965 445.37 127.467C445.545 128.514 446.006 129.195 445.951 130.347C445.913 131.224 445.677 131.57 445.403 132.623C447.877 132.915 450.335 133.33 452.768 133.868C452.822 133.044 452.945 132.226 453.135 131.422C453.557 130.237 454.643 129.628 455.131 128.63C457.539 123.693 461.52 97.8175 462.617 89.3972C462.827 88.5687 462.933 87.7175 462.935 86.8629Z" fill="url(#paint17_linear_2_1496)"/>
<g style="mix-blend-mode:multiply" opacity="0.35">
<path fill-rule="evenodd" clip-rule="evenodd" d="M461.109 96.8247C462.047 94.5646 463.105 87.4993 463.094 84.3945C463.094 77.9051 460.621 72.5403 459.864 68.4207L437.204 45.8643C437.352 50.0881 442.277 61.3444 444.3 69.6494C447.448 82.6117 454.309 93.7747 461.109 96.8247Z" fill="#3469C0"/>
</g>
<path fill-rule="evenodd" clip-rule="evenodd" d="M531.201 98.3606C528.004 108.926 513.005 117.247 497.979 113.939C494.392 109.946 493.323 111.197 490.043 107.971C487.054 105.042 483.369 101.038 478.214 95.8044C475.346 91.3062 464.038 89.4631 459.02 87.5048C453.377 85.3106 448.375 80.6808 446.044 71.723C444.915 67.3784 440.012 54.087 438.224 49.6547C433.107 36.8406 444.207 32.0572 451.715 36.7967C456.519 38.8044 467.12 41.3223 472.357 42.2822C475.385 42.8993 478.444 43.3552 481.521 43.6481C487.756 44.2515 494.524 48.8045 499.366 52.6608C512.396 63.0394 530.055 83.8734 531.201 98.3606Z" fill="url(#paint18_linear_2_1496)"/>
<path fill-rule="evenodd" clip-rule="evenodd" d="M455.866 31.6294C457.376 37.3926 460.471 42.6169 464.8 46.7091C463.209 52.392 452.362 56.4897 448.896 52.6499C448.627 51.8874 448.265 50.1869 447.892 49.6328C447.344 47.9872 446.757 46.5061 446.247 45.3322L455.866 31.6294Z" fill="url(#paint19_linear_2_1496)"/>
<path fill-rule="evenodd" clip-rule="evenodd" d="M424.354 24.0264C424.903 28.349 426.263 31.9968 429.987 35.716C430.751 36.4161 431.296 37.3232 431.555 38.3271C432.97 43.489 434.078 44.5422 437.39 46.9064C440.609 49.1994 441.816 50.7902 443.653 50.9822C445.49 51.1742 447.278 50.1593 448.66 49.172C451.49 47.1423 454.66 41.602 456.146 37.9431C457.243 35.2333 456.563 34.5531 455.866 31.9804C456.683 27.2464 453.409 26.9447 452.318 27.5316C449.192 29.2102 451.292 32.6715 450.256 34.6628C439.266 37.0929 427.892 27.2354 424.354 24.0264Z" fill="#FFA698"/>
<path fill-rule="evenodd" clip-rule="evenodd" d="M424.354 24.0264C430.458 34.1965 443.9 36.7637 450.256 34.6683C439.266 37.0929 427.892 27.2354 424.354 24.0264Z" fill="#FF9080"/>
<g style="mix-blend-mode:multiply" opacity="0.35">
<path fill-rule="evenodd" clip-rule="evenodd" d="M495.396 111.328C495.304 111.354 495.21 111.373 495.116 111.383C493.471 110.286 492.248 110.149 490.027 107.971C487.038 105.042 483.352 101.037 478.197 95.8043C476.733 93.5113 473.081 91.9096 469.187 90.626C469.801 80.1102 469.533 56.0672 472.977 52.9515C477.737 48.6344 484.279 45.7655 489.747 51.3826C500.079 61.9806 489.807 101.218 495.396 111.328Z" fill="#3469C0"/>
</g>
<path fill-rule="evenodd" clip-rule="evenodd" d="M480.863 125.459L474.326 100.867L478.845 96.8411L520.079 119.995L516.246 124.296L498.33 136.287L480.863 125.459Z" fill="#4A9FF8"/>
<path fill-rule="evenodd" clip-rule="evenodd" d="M474.348 100.939L471.342 91.3391L522.816 119.908L516.191 124.345L474.348 100.939Z" fill="#D0E7FF"/>
<path style="mix-blend-mode:multiply" opacity="0.5" fill-rule="evenodd" clip-rule="evenodd" d="M390.101 159.124C392.766 139.42 407.711 130.934 423.477 140.215L586.278 235.295C602.028 244.566 612.651 268.093 609.98 287.797L585.165 475.61C582.499 495.314 567.533 503.789 551.789 494.519L388.966 399.438C373.199 390.157 362.593 366.64 365.264 346.937L390.101 159.124Z" fill="url(#paint20_linear_2_1496)"/>
<path fill-rule="evenodd" clip-rule="evenodd" d="M395.848 158.037C396.139 155.909 396.556 146.397 399.139 144.461C402.588 141.85 408.873 138.048 410.732 137.549C415.58 136.254 421.152 137.11 426.894 140.467L579.023 228.652C593.654 237.265 603.525 259.124 601.047 277.435L578.014 451.957C577.147 458.347 574.888 463.476 571.69 467.064C569.53 469.494 564.473 472.889 560.256 475.072C555.869 477.322 549.765 471.156 546.996 469.527L394.817 381.342C380.164 372.724 370.309 350.869 372.793 332.564L395.848 158.037Z" fill="#D0E7FF"/>
<path fill-rule="evenodd" clip-rule="evenodd" d="M390.496 161.778C392.975 143.473 406.86 135.591 421.509 144.225L572.787 232.58C587.419 241.192 597.29 263.052 594.811 281.363L571.778 455.884C569.294 474.189 555.392 482.067 540.76 473.438L389.459 385.083C374.811 376.465 364.957 354.611 367.435 336.306L390.496 161.778Z" fill="white"/>
<path fill-rule="evenodd" clip-rule="evenodd" d="M390.496 161.778C392.975 143.473 406.861 135.591 421.509 144.225L572.787 232.58C587.419 241.192 597.29 263.052 594.811 281.363L592.464 298.686L388.105 179.338L390.496 161.778Z" fill="url(#paint21_linear_2_1496)"/>
<path fill-rule="evenodd" clip-rule="evenodd" d="M414.818 162.464C418.147 163.254 420.691 167.248 420.5 171.384C420.308 175.52 417.45 178.23 414.116 177.418C410.782 176.606 408.243 172.634 408.435 168.498C408.626 164.362 411.489 161.674 414.818 162.464Z" fill="white"/>
<path fill-rule="evenodd" clip-rule="evenodd" d="M432.597 173.567C435.932 174.357 438.476 178.35 438.284 182.486C438.092 186.623 435.235 189.332 431.901 188.52C428.566 187.709 426.022 183.737 426.219 179.601C426.417 175.465 429.268 172.766 432.597 173.567Z" fill="white"/>
<path fill-rule="evenodd" clip-rule="evenodd" d="M450.382 184.642C453.716 185.432 456.261 189.431 456.069 193.562C455.877 197.692 453.02 200.413 449.685 199.596C446.351 198.778 443.807 194.812 443.998 190.676C444.19 186.54 447.053 183.852 450.382 184.642Z" fill="white"/>
<path opacity="0.2" fill-rule="evenodd" clip-rule="evenodd" d="M422.583 214.012C438.026 217.676 449.823 236.184 448.907 255.35C447.991 274.517 434.769 287.084 419.326 283.42C403.883 279.755 392.086 261.253 393.002 242.086C393.918 222.92 407.14 210.347 422.583 214.012Z" fill="url(#paint22_linear_2_1496)"/>
<path fill-rule="evenodd" clip-rule="evenodd" d="M421.837 230.007C430.168 231.982 436.524 241.96 436.041 252.295C435.558 262.63 428.418 269.404 420.093 267.43C411.768 265.455 405.407 255.477 405.89 245.142C406.372 234.807 413.512 228.033 421.837 230.007Z" fill="url(#paint23_linear_2_1496)"/>
<path opacity="0.2" fill-rule="evenodd" clip-rule="evenodd" d="M458.219 251.203C458.767 247.128 461.849 245.427 465.101 247.402L563.979 304.413C567.226 306.388 569.414 311.297 568.866 315.384L567.769 323.437C567.22 327.507 564.133 329.207 560.886 327.238L462.03 270.211C458.783 268.236 456.595 263.326 457.149 259.24L458.219 251.203Z" fill="#955CF1"/>
<path opacity="0.2" fill-rule="evenodd" clip-rule="evenodd" d="M454.265 280.825C454.589 278.422 456.409 277.419 458.329 278.582L516.718 312.252C518.637 313.415 519.926 316.316 519.602 318.719L518.972 323.475C518.643 325.878 516.822 326.887 514.903 325.719L456.535 292.054C454.616 290.886 453.327 287.989 453.651 285.581L454.265 280.825Z" fill="#955CF1"/>
<path opacity="0.2" fill-rule="evenodd" clip-rule="evenodd" d="M388.286 288.379C388.686 285.416 390.929 284.171 393.298 285.636L564.062 383.635C566.426 385.072 568.022 388.648 567.621 391.611L567.073 395.494C566.673 398.462 564.424 399.702 562.06 398.264L391.313 300.244C388.944 298.807 387.354 295.23 387.754 292.268L388.286 288.379Z" fill="#955CF1"/>
<path opacity="0.2" fill-rule="evenodd" clip-rule="evenodd" d="M384.716 317.123C385.116 314.161 387.359 312.915 389.728 314.38L560.492 412.351C562.855 413.788 564.451 417.365 564.051 420.333L563.503 424.216C563.102 427.184 560.854 428.424 558.49 426.959L387.743 328.988C385.374 327.551 383.783 323.974 384.184 321.007L384.716 317.123Z" fill="#955CF1"/>
<path opacity="0.2" fill-rule="evenodd" clip-rule="evenodd" d="M380.975 344.506C381.376 341.539 383.619 340.299 385.988 341.764L556.752 439.762C559.115 441.199 560.711 444.776 560.311 447.738L559.762 451.622C559.362 454.59 557.113 455.829 554.75 454.365L384.003 356.366C381.634 354.929 380.043 351.352 380.444 348.39L380.975 344.506Z" fill="#955CF1"/>
<path fill-rule="evenodd" clip-rule="evenodd" d="M601.617 142.146C602.165 138.35 599.626 135.421 601.277 132.908C603.059 130.165 609.114 128.24 611.735 127.297C615.448 125.958 619.824 126.391 624.277 128.942L805.91 232.81C816.516 238.877 823.585 254.654 821.688 268.011L801.298 410.541C800.366 417.085 797.459 421.847 793.472 424.282C791.043 425.774 784.385 428.621 781.369 428.254C779.252 427.996 780.864 425.023 778.627 423.75L596.994 319.871C586.377 313.798 579.319 298.028 581.222 284.676L601.617 142.146Z" fill="#D0E7FF"/>
<path fill-rule="evenodd" clip-rule="evenodd" d="M596.171 144.318C598.074 130.961 608.236 125.037 618.837 131.115L800.47 235.005C811.077 241.072 818.146 256.848 816.243 270.205L795.858 412.735C793.955 426.087 783.793 432.011 773.187 425.939L591.554 322.06C580.937 315.987 573.879 300.216 575.782 286.859L596.171 144.318Z" fill="url(#paint24_linear_2_1496)"/>
<path fill-rule="evenodd" clip-rule="evenodd" d="M582.044 293.392C582.209 292.235 583.092 291.747 584.007 292.295L785.504 407.831C785.987 408.179 786.369 408.65 786.608 409.195C786.847 409.74 786.935 410.339 786.864 410.93L786.315 414.447C786.151 415.61 785.273 416.092 784.352 415.544L582.9 300.013C582.414 299.666 582.031 299.195 581.791 298.648C581.551 298.102 581.462 297.501 581.534 296.909L582.044 293.392Z" fill="#6D6AFD"/>
<path fill-rule="evenodd" clip-rule="evenodd" d="M582.165 293.502C582.324 292.405 583.174 291.906 584.057 292.443L665.315 339.032C665.781 339.367 666.149 339.821 666.379 340.347C666.61 340.873 666.695 341.451 666.625 342.022L666.115 345.412C665.951 346.509 665.106 347.008 664.218 346.476L582.966 299.887C582.498 299.553 582.129 299.099 581.897 298.573C581.666 298.047 581.58 297.468 581.649 296.898L582.165 293.502Z" fill="#B269EB"/>
<path fill-rule="evenodd" clip-rule="evenodd" d="M661.799 224.922C662.254 221.741 664.667 220.331 667.19 221.779L723.128 253.771C725.651 255.213 727.329 258.965 726.879 262.147L719.333 315.356C718.883 318.538 716.465 319.942 713.942 318.5L658.004 286.508C655.476 285.066 653.798 281.313 654.248 278.132L661.799 224.922Z" fill="url(#paint25_linear_2_1496)"/>
<path fill-rule="evenodd" clip-rule="evenodd" d="M693.7 248.077C684.021 242.542 674.774 247.934 673.041 260.117C671.308 272.301 677.736 286.667 687.421 292.208C697.106 297.748 706.341 292.35 708.074 280.139C709.807 267.929 703.374 253.611 693.7 248.077Z" fill="url(#paint26_linear_2_1496)"/>
<path fill-rule="evenodd" clip-rule="evenodd" d="M684.745 253.996L681.69 276.036L700.363 276.547L684.745 253.996Z" fill="white"/>
<path fill-rule="evenodd" clip-rule="evenodd" d="M467.246 141.263C465.661 143.918 466.494 149.656 465.979 152.387C465.42 155.116 464.607 157.786 463.549 160.363C463.215 161.071 452.685 170.429 452.071 169.957C450.684 168.86 449.784 161.499 451.605 159.348C453.426 157.198 454.967 155.103 455.274 153.342C455.581 151.581 455.488 145.744 456.25 144.839C457.978 142.799 459.782 142.151 460.555 139.601L467.246 141.263Z" fill="url(#paint27_linear_2_1496)"/>
<path fill-rule="evenodd" clip-rule="evenodd" d="M487.718 105.514C487.887 104.906 488.021 104.289 488.118 103.665C490.86 92.3211 493.646 72.9078 493.29 61.6625C493.015 53.0722 488.836 45.7984 478.762 48.6015C475.664 49.4573 472.083 51.8161 471.633 55.8918C471.084 60.7739 471.814 68.8815 472.274 77.1646C472.642 83.7801 472.615 95.7221 472.867 100.56C472.823 100.708 472.779 100.857 472.741 101.01C469.516 107.434 462.008 128.405 460.434 135.212C460.171 136.348 460.434 137.571 460.434 138.355C460.361 139.25 460.082 140.116 459.617 140.884C461.577 142.644 463.957 143.87 466.527 144.444C466.93 143.578 467.401 142.745 467.937 141.954C468.37 141.285 470.388 140.654 471.178 139.716C475.351 134.713 486.363 111.839 487.712 105.755C487.718 105.678 487.718 105.596 487.718 105.514Z" fill="url(#paint28_linear_2_1496)"/>
<path opacity="0.3" fill-rule="evenodd" clip-rule="evenodd" d="M326.815 689.951L418.262 637.839C428.232 633.28 442.502 629.654 452.658 634.942C461.91 639.759 477.156 649.622 483.917 653.467C489.034 656.385 506.808 667.038 495.741 673.056C463.171 690.768 430.947 710.692 397.878 728.684C391.62 732.085 382.473 733.319 372.87 732.524C363.267 731.729 353.5 728.948 345.784 724.455C340.3 721.262 334.895 718.116 329.568 715.014C322.395 710.84 318.6 705.897 318.216 701.333C317.832 696.885 320.694 692.743 326.815 689.951Z" fill="#955CF1"/>
<path fill-rule="evenodd" clip-rule="evenodd" d="M360.514 687.192C362.302 687.148 368.335 681.476 374.054 684.339C380.915 687.779 393.951 684.734 400.526 686.314C401.7 686.594 403.992 685.733 404.442 686.539C405.862 689.057 407.233 692.831 403.745 695.316C401.184 697.132 395.689 699.534 392.092 700.801C388.253 702.156 381.727 704.29 377.345 704.976C372.486 705.733 370.27 706.073 368.455 707.45C365.856 708.761 363.174 709.32 361.671 709.095C358.469 708.585 354.739 706.709 353.028 703.061C352.48 701.893 352.48 696.797 353.094 693.489C353.593 690.878 355.014 687.905 356.154 685.129L360.514 687.192Z" fill="white"/>
<path fill-rule="evenodd" clip-rule="evenodd" d="M374.554 674.986C372.36 680.203 373.046 688.272 367.902 691.076C364.463 692.946 359.072 692.963 356.725 687.614C355.414 684.63 357.158 679.539 356.769 672.99L374.554 674.986Z" fill="#FFA495"/>
<path fill-rule="evenodd" clip-rule="evenodd" d="M375.985 683.067C379.928 684.213 390.792 683.445 397.696 683.999C400.658 684.24 403.306 684.219 404.694 686.906C405.966 689.375 405.297 691.498 402.418 693.533C399.851 695.349 395.503 697.417 391.9 698.695C388.061 700.05 381.535 702.184 377.153 702.869C372.294 703.632 370.084 703.966 368.263 705.349C365.664 706.654 362.982 707.219 361.485 706.994C359.641 706.677 357.899 705.93 356.396 704.816C354.894 703.701 353.675 702.249 352.836 700.576C352.288 699.408 352.288 694.69 352.908 691.383C353.036 690.724 353.204 690.073 353.412 689.435C353.961 684.257 355.666 682.161 357.278 683.045C359.472 684.262 360.317 686.446 361.156 688.239C361.425 688.901 361.832 689.499 362.349 689.992C362.866 690.486 363.482 690.864 364.155 691.103C366.793 691.937 369.206 690.461 370.736 688.196C371.6 686.546 372.21 684.777 372.546 682.946C372.546 682.77 372.546 682.595 372.546 682.397C373.062 677.872 375.288 678.261 374.932 679.221C374.575 680.181 374.789 682.14 375.985 683.067Z" fill="#193161"/>
<path fill-rule="evenodd" clip-rule="evenodd" d="M403.318 686.144C403.263 687.894 405.944 688.058 405.171 691.136C406.46 689.874 404.661 686.243 403.866 685.689C403.537 685.464 403.263 685.365 403.318 686.144Z" fill="white"/>
<path fill-rule="evenodd" clip-rule="evenodd" d="M405.374 669.238C407.02 668.58 410.754 661.18 417.105 661.898C419.671 662.189 423.79 661.525 427.969 660.335C434.637 658.437 443.927 652.474 445.518 653.451C448.973 655.579 449.252 659.452 446.829 662.968C445.041 665.557 441.668 669.002 438.729 671.438C435.603 674.021 431.177 677.982 427.294 680.132C423.625 682.167 422.408 681.986 419.797 685.513C417.812 687.636 415.481 688.903 413.995 689.194C410.156 689.935 404.672 687.488 402.654 684.932C401.387 680.829 399.188 676.945 400.598 670.79L405.374 669.238Z" fill="white"/>
<path fill-rule="evenodd" clip-rule="evenodd" d="M414.182 651.761C414.077 657.411 417.664 664.668 413.907 669.166C411.396 672.172 406.394 674.169 402.248 670.06C399.934 667.767 399.676 662.381 396.912 656.445L414.182 651.761Z" fill="#FFA495"/>
<path fill-rule="evenodd" clip-rule="evenodd" d="M426.258 658.651C426.642 658.552 427.02 658.448 427.398 658.338C434.067 656.44 442.979 651.843 444.564 652.82C448.019 654.948 448.677 657.455 446.253 660.971C444.465 663.56 441.092 667.005 438.147 669.435C435.027 672.024 430.601 675.979 426.718 678.135C423.05 680.17 421.832 679.989 419.222 683.516C417.236 685.639 414.906 686.906 413.42 687.192C409.581 687.938 403.905 685.469 401.903 682.913C400.96 679.858 399.665 676.95 399.561 673.11C399.013 668.091 399.353 665.535 401.535 665.595C405.599 665.716 407.277 667.855 408.955 668.887C412.569 671.141 414.988 668.228 415.586 664.624C415.656 663.03 415.544 661.432 415.251 659.863C415.198 659.695 415.136 659.53 415.065 659.369C413.88 654.981 416.074 654.526 416.118 655.529C416.097 656.472 416.429 657.389 417.049 658.099C417.669 658.81 418.532 659.263 419.468 659.369C421.684 659.726 424.475 658.799 426.258 658.651Z" fill="#193161"/>
<path fill-rule="evenodd" clip-rule="evenodd" d="M444.152 653.385C444.86 654.986 447.349 653.983 447.991 657.093C448.611 655.392 445.419 652.897 444.465 652.737C444.064 652.677 443.768 652.71 444.152 653.385Z" fill="white"/>
<path fill-rule="evenodd" clip-rule="evenodd" d="M410.337 499.209C411.801 515.572 420 567.849 417.719 582.199C414.291 603.779 415.267 629.846 415.306 652.754C414.757 662.375 401.497 667.405 397.647 661.289C394.559 640.823 390.161 622.891 388.373 611.519C386.366 598.787 387.03 583.313 390.26 574.942C388.933 565.797 382.703 542.21 377.498 525.863C375.617 519.966 364.973 500.909 375.99 481.979L410.337 499.209Z" fill="url(#paint29_linear_2_1496)"/>
<path fill-rule="evenodd" clip-rule="evenodd" d="M415.52 646.61C415.52 648.305 415.471 650.894 415.471 652.562C414.922 662.183 401.497 667.405 397.647 661.289C397.422 659.781 397.099 658.283 396.852 656.807C402.029 662.386 412.175 655.14 415.52 646.61Z" fill="url(#paint30_linear_2_1496)"/>
<g style="mix-blend-mode:multiply" opacity="0.3">
<path fill-rule="evenodd" clip-rule="evenodd" d="M418.07 572.457C413.754 594.097 401.552 623.006 394.894 644.767C391.428 626.116 382.752 594.372 390.254 574.942C389.503 569.731 387.156 559.84 384.31 549.27C390.084 538.299 384.567 529.582 387.293 514.162C402.577 511.496 379.511 492.84 411.851 512.489C414.779 535.72 417.466 550.323 418.07 572.457Z" fill="#1E2353"/>
</g>
<path fill-rule="evenodd" clip-rule="evenodd" d="M409.295 592.984C400.477 612.951 384.211 652.118 375.557 676.621C371.082 683.127 355.118 682.447 355.151 676.38C358.677 655.892 362.829 624.295 370.166 606.33C372.42 600.844 380.723 587.597 383.712 583.669C386.043 574.629 388.955 550.208 391.209 536.993C389.191 526.06 380.372 507.777 397.313 491.886C404.146 496.751 425.281 499.79 434.862 494.376C436.403 537.569 425.802 555.578 409.295 592.984Z" fill="url(#paint31_linear_2_1496)"/>
<path fill-rule="evenodd" clip-rule="evenodd" d="M377.34 672.348C376.956 673.445 376.188 675.579 375.826 676.605C371.219 683.303 354.789 682.606 354.816 676.358C354.992 675.349 355.167 674.306 355.365 673.248C359.264 677.241 371.11 677.291 377.34 672.348Z" fill="url(#paint32_linear_2_1496)"/>
<path fill-rule="evenodd" clip-rule="evenodd" d="M463.341 259.843C462.71 261.165 462.112 262.504 461.454 263.815L458.762 269.207C458.213 266.563 456.074 265.553 454.451 266.886C453.877 267.359 453.426 267.963 453.135 268.647C452.877 267.929 450.837 266.3 448.073 270.227C446.351 270.041 445.441 270.776 444.717 272.164C444.266 273.077 443.879 274.021 443.56 274.989C443.068 276.211 442.796 277.511 442.754 278.828C442.754 281.429 442.885 284.254 442.808 287.358C442.732 290.732 438.904 295.005 436.825 297.463L449.345 301.434C451.259 299.032 452.29 297.293 454.221 295.34C456.151 293.387 458.668 293.107 460.544 291.571C461.591 290.716 462.189 289.575 463.977 287.051C465.452 284.961 466.258 282.701 467.668 280.414C469.077 278.126 468.951 278.565 469.094 275.91C469.198 273.859 469.861 271.834 470.031 270.589C467.459 269.306 465.43 272.482 465.452 275.576C463.977 276.404 463.012 278.439 462.677 279.344C460.632 276.667 461.849 275.548 462.677 272.114C463.905 269.931 464.892 267.621 465.622 265.224C466.022 264.166 466.423 263.069 466.851 261.884C467.432 259.958 466.686 258.592 466.105 258.214C465.628 257.896 464.383 258.044 463.341 259.843Z" fill="url(#paint33_linear_2_1496)"/>
<path fill-rule="evenodd" clip-rule="evenodd" d="M468.556 270.315C466.724 270.578 465.436 273.101 465.452 275.57C464.07 276.349 463.138 278.176 462.748 279.152C463.5 278.186 465.414 276.118 466.039 275.861C466.231 273.485 467.081 271.533 468.556 270.304V270.315ZM458.992 268.746L458.762 269.207C458.639 268.62 458.406 268.061 458.076 267.561C457.943 269.047 457.315 270.446 456.294 271.533C456.923 271.302 457.492 270.933 457.959 270.452C458.426 269.972 458.779 269.392 458.992 268.757V268.746ZM453.118 268.609C452.974 268.321 452.744 268.085 452.46 267.934C452.212 269.205 451.734 270.421 451.051 271.522C452.02 270.784 452.742 269.768 453.118 268.609ZM448.133 270.145L448.073 270.227C447.807 270.2 447.539 270.2 447.272 270.227C447.151 271.67 446.645 273.055 445.808 274.237C447.135 272.926 447.804 272.048 448.133 270.145Z" fill="#FF8978"/>
<path fill-rule="evenodd" clip-rule="evenodd" d="M416.063 332.186C422.364 321.215 427.299 307.452 436.101 296.3C436.836 295.367 438.564 294.654 439.194 293.678C440.116 292.259 441.03 290.866 441.937 289.498C446.061 289.569 451.128 291.692 454.605 295.208C454.111 296.671 453.627 298.134 453.151 299.597C452.603 301.292 453.661 304.918 453.151 306.613C449.126 321.022 443.964 335.089 437.714 348.681C428.983 359.943 390.183 432.264 369.898 406.021C368.071 396.696 370.539 388.923 375.234 381.369C377.833 377.189 381.782 373.541 384.441 370.782C390.852 364.172 406.487 342.065 416.063 332.186Z" fill="url(#paint34_linear_2_1496)"/>
<path fill-rule="evenodd" clip-rule="evenodd" d="M372.898 440.563C374.318 453.367 370.468 465.961 374.384 477.651C374.559 478.863 374.674 483.603 374.877 484.892C377.46 500.037 409.488 515.364 436.201 500.8C436.349 498.924 436.201 496.96 436.321 493.482C435.828 490.235 437.232 486.751 437.221 484.771C437.182 476.543 434.621 472.313 435.85 463.142C438.35 444.491 448.688 426.553 442.979 411.874C441.756 408.72 439.601 407.195 437.166 405.237C430.853 400.163 398.229 383.536 388.308 382.362C359.566 378.665 371.357 426.669 372.898 440.563Z" fill="url(#paint35_linear_2_1496)"/>
<g style="mix-blend-mode:multiply" opacity="0.35">
<path fill-rule="evenodd" clip-rule="evenodd" d="M438.739 449.647C442.447 435.933 447.289 422.988 442.968 411.901C441.745 408.747 439.59 407.222 437.155 405.264C430.842 400.19 431.671 413.832 421.799 412.658C419.88 430.887 428.89 447.469 438.739 449.647Z" fill="#6266D7"/>
</g>
<path fill-rule="evenodd" clip-rule="evenodd" d="M418.618 376.657C418.274 381.91 418.518 387.185 419.348 392.384C409.992 392.082 396.983 389.641 395.563 382.664C395.634 381.824 395.689 380.98 395.733 380.146C395.613 380.037 395.485 379.938 395.349 379.849C391.998 377.617 386.449 375.96 382.878 371.879C377.175 365.357 374.148 356.596 378.623 347.776C386.794 331.67 406.559 331.401 417.56 344.419C419.71 346.964 418.108 349.597 419.359 352.054C419.6 352.532 420.455 352.746 421.497 353.59C422.907 354.753 427.014 364.819 426.91 370.074C426.866 372.192 422.007 375.17 419.847 376.339C419.451 376.492 419.039 376.599 418.618 376.657Z" fill="#FFA698"/>
<path fill-rule="evenodd" clip-rule="evenodd" d="M418.618 376.657C418.274 381.91 418.518 387.185 419.348 392.384C409.992 392.082 396.983 389.641 395.563 382.663C395.634 381.824 395.689 380.979 395.733 380.146C395.607 380.036 395.464 379.954 395.349 379.849C388.22 373.19 397.751 365.587 409.772 372.131C410.67 373.643 411.977 374.87 413.542 375.671C415.107 376.472 416.867 376.814 418.618 376.657Z" fill="url(#paint36_linear_2_1496)"/>
<path fill-rule="evenodd" clip-rule="evenodd" d="M426.888 370.074C426.844 371.002 423.017 372.395 421.404 372.609C422.501 362.664 413.03 361.144 414.456 351.429C415.311 345.593 409.312 343.481 411.664 339.208C413.86 340.653 415.834 342.408 417.527 344.419C419.677 346.964 418.075 349.597 419.326 352.055C419.567 352.532 420.423 352.746 421.465 353.591C422.885 354.753 427.13 364.825 426.888 370.074Z" fill="url(#paint37_linear_2_1496)"/>
<path fill-rule="evenodd" clip-rule="evenodd" d="M413.99 366.032C413.809 363.805 412.893 363.377 412.158 363.969C411.423 364.562 410.639 366.547 410.864 368.84C411.226 372.532 414.653 375.845 417.012 372.856C414.429 374.227 413.217 370.914 413.107 368.577C413.03 366.992 413.43 365.659 413.99 366.032Z" fill="#FFB49C"/>
<path fill-rule="evenodd" clip-rule="evenodd" d="M413.167 367.458C414.544 368.495 415.174 369.197 415.152 369.784C415.152 370.19 414.801 370.798 413.595 370.371C413.177 369.46 413.029 368.45 413.167 367.458Z" fill="#FF9D8E"/>
<path fill-rule="evenodd" clip-rule="evenodd" d="M395.426 382.411C392.684 383.267 390.068 386.114 390.573 387.941C393.315 399.208 413.979 401.726 426.817 399.011C426.976 398.978 422.013 392.428 419.556 391.616C411.489 392.439 397.916 389.065 395.426 382.411Z" fill="#726CDE"/>
<path fill-rule="evenodd" clip-rule="evenodd" d="M394.433 381.715C391.006 378.061 385.215 376.317 381.497 372.066C377.778 367.814 373.819 361.435 376.27 354.825C371.954 341.248 386.69 330.475 399.133 328.028C408.028 326.278 413.343 335.817 409.482 342.29C412.811 346.021 412.701 350.952 412.471 352.219C411.758 356.097 411.856 356.608 413.096 359.487C414.077 361.78 416.518 367.321 412.098 363.81C409.246 361.545 407.25 366.553 408.215 370.014C408.896 372.177 409.108 374.461 408.835 376.712C408.007 383.958 396.336 383.75 394.433 381.715Z" fill="#562E65"/>
<path fill-rule="evenodd" clip-rule="evenodd" d="M380.389 348.681C377.444 335.516 394.735 328.867 401.497 328.708C408.341 328.555 413.704 339.816 405.588 343.612C400.06 346.196 389.097 341.138 380.389 348.681Z" fill="url(#paint38_linear_2_1496)"/>
<path fill-rule="evenodd" clip-rule="evenodd" d="M517.469 367.304C517.152 368.158 516.967 369.055 516.921 369.965C516.36 371.263 515.931 372.613 515.638 373.997C515.215 376.125 515.374 377.803 515.308 380.639C515.311 382.02 515.506 383.394 515.89 384.721C514.245 387.968 511.618 389.965 509.177 392.642L517.08 398.676C520.414 396.482 523.019 394.161 525.893 392.252C528.223 391.331 529.041 390.81 529.732 390.058C531.563 388.149 536.954 382.477 537.261 380.25C537.607 377.771 536.949 372.022 536.389 368.906C534.958 360.892 531.909 352.477 531.382 356.191C530.62 357.079 531.245 364.32 530.763 365.395C528.893 367.551 528.021 368.434 525.657 371.007C524.204 371.835 523.244 372.696 522.542 372.888C521.73 373.108 521.286 372.543 521.259 371.83C521.231 371.117 521.736 369.636 522.153 367.562C522.153 364.128 521.303 362.181 519.465 362.362C519.035 362.382 518.625 362.555 518.31 362.849C517.994 363.144 517.794 363.54 517.743 363.969C517.551 364.792 517.601 365.9 517.469 367.304Z" fill="url(#paint39_linear_2_1496)"/>
<path fill-rule="evenodd" clip-rule="evenodd" d="M437.813 400.93C448.693 402.609 469.692 414.584 484.181 421.073C492.264 409.554 502.865 395.752 509.407 391.106C510.159 390.557 512.073 389.46 512.659 388.769C513.608 387.606 514.535 386.41 515.401 385.181C519.487 385.73 525.41 390.853 525.333 393.262C524.675 394.468 524.001 395.73 523.321 397.03C522.86 397.919 523.03 399.866 522.772 400.87C520.578 408.934 508.322 427.562 502.618 435.878C499.328 440.678 498.165 443.498 495.933 444.93C492.352 447.233 487.548 445.977 478.291 443.651C470.503 441.693 445.353 437.113 433.782 431.007C425.621 426.701 419.359 418.939 422.6 410.009C424.651 404.282 430.804 399.85 437.813 400.93Z" fill="url(#paint40_linear_2_1496)"/>
<path opacity="0.5" fill-rule="evenodd" clip-rule="evenodd" d="M737.244 68.415C730.115 64.4764 722.596 69.7919 722.673 80.0772C722.706 85.4037 724.965 90.8837 728.53 94.3396C729.393 95.1804 730.361 95.9068 731.409 96.5009C738.505 100.434 746.007 95.1185 745.953 84.8825C745.953 79.5451 743.693 74.0432 740.145 70.6202C739.276 69.7679 738.301 69.0305 737.244 68.426V68.415ZM730.394 101.328C728.987 100.534 727.688 99.5625 726.528 98.4372C721.729 93.8294 718.724 86.4459 718.653 79.2818C718.565 65.4858 728.683 58.3107 738.237 63.6097C739.667 64.4157 740.985 65.4061 742.158 66.5554C746.94 71.1523 749.945 78.5358 749.978 85.7054C750.038 99.463 739.937 106.622 730.394 101.328ZM762.937 89.6056C764.582 90.5326 765.591 92.9517 765.131 95.0362L763.392 103.116C762.948 105.179 761.237 106.1 759.553 105.179L758.703 104.707C758.424 104.535 758.113 104.422 757.789 104.376C757.464 104.33 757.134 104.351 756.818 104.438C756.502 104.524 756.207 104.676 755.952 104.882C755.697 105.087 755.488 105.344 755.336 105.634C754.864 106.429 754.347 107.196 753.789 107.933C752.923 109.068 752.78 110.884 753.444 112.508L753.894 113.605C754.749 115.689 754.234 118.07 752.758 118.871L746.951 122.003C746.582 122.195 746.171 122.288 745.755 122.274C745.34 122.259 744.936 122.138 744.582 121.921C743.71 121.393 743.042 120.587 742.684 119.633L742.229 118.564C741.874 117.621 741.211 116.827 740.348 116.309C739.921 116.065 739.436 115.939 738.944 115.947C738.116 115.947 737.299 115.92 736.443 115.843C735.111 115.717 733.992 116.666 733.652 118.245L733.427 119.299C732.983 121.356 731.277 122.283 729.588 121.361L723.068 117.741C721.422 116.819 720.413 114.4 720.874 112.338L721.104 111.284C721.257 110.463 721.222 109.617 721 108.811C720.779 108.006 720.378 107.261 719.826 106.633C719.124 105.859 718.472 105.058 717.819 104.235C717.483 103.789 717.06 103.416 716.574 103.138C716.224 102.922 715.824 102.8 715.412 102.785C715.001 102.769 714.593 102.861 714.227 103.051L713.465 103.446C713.095 103.637 712.683 103.731 712.267 103.716C711.851 103.702 711.446 103.58 711.09 103.363C710.218 102.837 709.549 102.031 709.193 101.076L705.804 92.7926C704.948 90.7027 705.464 88.3219 706.933 87.5266L707.707 87.1042C708.853 86.4843 709.44 84.91 709.198 83.1656C709.039 82.0685 708.93 80.9384 708.858 79.8249C708.754 78.1024 707.844 76.4678 706.571 75.7601L705.721 75.2884C704.076 74.3668 703.067 71.9477 703.528 69.8851L705.266 61.805C705.716 59.7205 707.427 58.7934 709.105 59.7205L709.955 60.1868C710.234 60.3596 710.545 60.473 710.87 60.5199C711.194 60.5667 711.525 60.546 711.841 60.4589C712.157 60.3719 712.452 60.2204 712.707 60.014C712.962 59.8077 713.171 59.5509 713.322 59.2597C713.794 58.467 714.311 57.7015 714.869 56.9668C715.73 55.8697 715.872 54.0375 715.209 52.4138L714.759 51.3167C713.909 49.2103 714.419 46.846 715.9 46.0287L721.751 42.8635C722.121 42.6735 722.532 42.5817 722.947 42.5971C723.362 42.6125 723.766 42.7345 724.121 42.9513C724.992 43.4766 725.66 44.2806 726.018 45.2333L726.468 46.3304C726.822 47.2727 727.485 48.0673 728.349 48.5849C728.774 48.8338 729.26 48.9592 729.753 48.947C730.589 48.9277 731.426 48.9552 732.259 49.0292C733.591 49.1828 734.705 48.2338 735.045 46.654L735.27 45.6008C735.719 43.5163 737.43 42.5947 739.108 43.5163L745.635 47.1367C747.28 48.0583 748.289 50.4774 747.828 52.5564L747.603 53.6151C747.448 54.4306 747.481 55.271 747.701 56.0716C747.92 56.8722 748.32 57.6119 748.87 58.2339C749.572 59.0055 750.245 59.8156 750.888 60.664C751.224 61.1112 751.647 61.4847 752.133 61.7611C752.484 61.9769 752.884 62.0988 753.295 62.1151C753.706 62.1314 754.114 62.0416 754.48 61.8544L755.254 61.4375C755.622 61.2456 756.034 61.1523 756.449 61.1667C756.864 61.1811 757.269 61.3027 757.623 61.5197C758.494 62.0464 759.164 62.8498 759.526 63.8017L762.909 72.0903C763.76 74.2022 763.255 76.561 761.774 77.3784L761.001 77.7953C759.855 78.4151 759.268 79.9895 759.515 81.7174C759.668 82.8145 759.782 83.9262 759.855 85.0526C759.881 85.8648 760.103 86.6585 760.502 87.3663C760.902 88.074 761.466 88.6748 762.147 89.1173L762.937 89.6056Z" fill="white"/>
<path fill-rule="evenodd" clip-rule="evenodd" d="M69.6273 49.3475C68.8979 54.3558 64.9767 56.6268 60.8527 54.3284C56.7287 52.03 53.9263 46.0453 54.6557 41.037C55.385 36.0287 59.2897 33.9058 63.507 36.2317C67.642 38.5246 70.3731 44.3777 69.6437 49.3475H69.6273ZM46.9066 93.8405C47.636 88.8323 51.5407 86.6655 55.758 88.9968C59.9752 91.3282 62.6296 97.1428 61.8947 102.162C61.1598 107.181 57.2442 109.436 53.1202 107.137C48.9961 104.839 46.1882 98.8543 46.9231 93.8515L46.9066 93.8405ZM21.0218 51.0206C20.2979 55.996 16.3109 58.1244 12.1759 55.8314C8.04091 53.5385 5.30434 47.6854 6.03373 42.7101C6.76311 37.7347 10.7117 35.4528 14.8083 37.7347C18.9049 40.0167 21.7402 46.0178 21.0053 51.0206H21.0218ZM64.4229 29.8466C57.3758 25.9354 50.6194 29.5833 49.369 38.1077V38.7386L24.8058 42.5784C23.0618 37.7786 19.8262 33.6645 15.768 31.4154C8.72093 27.5097 2.05778 31.2454 0.812894 39.7644C-0.421026 48.1901 4.21851 58.2615 11.2656 62.1672C15.3238 64.4217 19.201 64.1474 21.9815 61.86L41.79 90.4231L41.6419 90.8784C40.3915 99.3974 45.1517 109.436 52.1933 113.342C59.2349 117.247 65.9035 113.539 67.1484 105.02C68.3824 96.5943 63.6661 86.4516 56.6958 82.5843C51.6888 79.8086 46.8847 80.8783 44.0494 84.6852L25.2829 57.3344C25.7889 56.2367 26.1131 55.064 26.2426 53.8621C26.4707 52.5251 26.5187 51.1636 26.3852 49.8138L49.7419 45.8149C51.113 51.9861 54.9079 57.7898 59.9259 60.5709C66.8907 64.4108 73.6361 60.741 74.881 52.222C76.1259 43.703 71.3876 33.7193 64.4229 29.8466Z" fill="url(#paint41_linear_2_1496)"/>
<defs>
<linearGradient id="paint0_linear_2_1496" x1="503.627" y1="117.697" x2="503.616" y2="188.559" gradientUnits="userSpaceOnUse">
<stop stop-color="#324179"/>
<stop offset="1" stop-color="#0C124D"/>
</linearGradient>
<linearGradient id="paint1_linear_2_1496" x1="515.424" y1="122.217" x2="515.374" y2="242.926" gradientUnits="userSpaceOnUse">
<stop stop-color="#324179"/>
<stop offset="1" stop-color="#0C124D"/>
</linearGradient>
<linearGradient id="paint2_linear_2_1496" x1="572.195" y1="241.713" x2="496.175" y2="702.984" gradientUnits="userSpaceOnUse">
<stop stop-color="#D1E8FF"/>
<stop offset="1" stop-color="#EAEFFF"/>
</linearGradient>
<linearGradient id="paint3_linear_2_1496" x1="616.298" y1="154.417" x2="438.908" y2="722.531" gradientUnits="userSpaceOnUse">
<stop stop-color="#6D6AFE"/>
<stop offset="1" stop-color="#3FB0F7"/>
</linearGradient>
<linearGradient id="paint4_linear_2_1496" x1="697.873" y1="525.605" x2="742.637" y2="431.477" gradientUnits="userSpaceOnUse">
<stop stop-color="#965CF2"/>
<stop offset="1" stop-color="#FF8ADC"/>
</linearGradient>
<linearGradient id="paint5_linear_2_1496" x1="692.077" y1="359.103" x2="775.004" y2="237.998" gradientUnits="userSpaceOnUse">
<stop stop-color="#965CF2"/>
<stop offset="1" stop-color="#FF8ADC"/>
</linearGradient>
<linearGradient id="paint6_linear_2_1496" x1="302.004" y1="482.577" x2="353.999" y2="369.201" gradientUnits="userSpaceOnUse">
<stop stop-color="#965CF2"/>
<stop offset="1" stop-color="#FF8ADC"/>
</linearGradient>
<linearGradient id="paint7_linear_2_1496" x1="238.663" y1="359.082" x2="218.066" y2="418.113" gradientUnits="userSpaceOnUse">
<stop stop-color="#1C8EF4"/>
<stop offset="1" stop-color="#00CFDD"/>
</linearGradient>
<linearGradient id="paint8_linear_2_1496" x1="308.624" y1="195.081" x2="350.74" y2="54.2685" gradientUnits="userSpaceOnUse">
<stop stop-color="#965CF2"/>
<stop offset="1" stop-color="#FF8ADC"/>
</linearGradient>
<linearGradient id="paint9_linear_2_1496" x1="296.542" y1="53.3137" x2="248.539" y2="210.944" gradientUnits="userSpaceOnUse">
<stop stop-color="#6D6AFE"/>
<stop offset="1" stop-color="#3FB0F7"/>
</linearGradient>
<linearGradient id="paint10_linear_2_1496" x1="701.548" y1="495.111" x2="715.626" y2="467.769" gradientUnits="userSpaceOnUse">
<stop stop-color="#965CF2"/>
<stop offset="1" stop-color="#FF8ADC"/>
</linearGradient>
<linearGradient id="paint11_linear_2_1496" x1="532.117" y1="536.329" x2="498.24" y2="589.026" gradientUnits="userSpaceOnUse">
<stop stop-color="#FF66BC"/>
<stop offset="0.56" stop-color="#FF8ADC"/>
<stop offset="1" stop-color="#FFBBA8"/>
</linearGradient>
<linearGradient id="paint12_linear_2_1496" x1="541.215" y1="555.189" x2="452.905" y2="558.977" gradientUnits="userSpaceOnUse">
<stop stop-color="#FF66BC"/>
<stop offset="0.56" stop-color="#FF8ADC"/>
<stop offset="1" stop-color="#FFBBA8"/>
</linearGradient>
<linearGradient id="paint13_linear_2_1496" x1="662.304" y1="669.194" x2="678.605" y2="624.407" gradientUnits="userSpaceOnUse">
<stop stop-color="#965CF2"/>
<stop offset="1" stop-color="#FF8ADC"/>
</linearGradient>
<linearGradient id="paint14_linear_2_1496" x1="666.537" y1="687.839" x2="660.584" y2="576.215" gradientUnits="userSpaceOnUse">
<stop stop-color="#965CF2"/>
<stop offset="1" stop-color="#FF8ADC"/>
</linearGradient>
<linearGradient id="paint15_linear_2_1496" x1="446.488" y1="9.23744" x2="446.604" y2="89.282" gradientUnits="userSpaceOnUse">
<stop stop-color="#5A2D68"/>
<stop offset="1" stop-color="#22043D"/>
</linearGradient>
<linearGradient id="paint16_linear_2_1496" x1="448.726" y1="145.931" x2="445.298" y2="144.714" gradientUnits="userSpaceOnUse">
<stop stop-color="#FF8A78"/>
<stop offset="1" stop-color="#FFA799"/>
</linearGradient>
<linearGradient id="paint17_linear_2_1496" x1="450.382" y1="118.69" x2="449.905" y2="49.9619" gradientUnits="userSpaceOnUse">
<stop stop-color="#965CF2"/>
<stop offset="1" stop-color="#FF8ADC"/>
</linearGradient>
<linearGradient id="paint18_linear_2_1496" x1="494.107" y1="102.952" x2="477.702" y2="50.7927" gradientUnits="userSpaceOnUse">
<stop stop-color="#965CF2"/>
<stop offset="1" stop-color="#FF8ADC"/>
</linearGradient>
<linearGradient id="paint19_linear_2_1496" x1="453.651" y1="43.6811" x2="457.803" y2="48.7212" gradientUnits="userSpaceOnUse">
<stop stop-color="#FF8A78"/>
<stop offset="1" stop-color="#FFA799"/>
</linearGradient>
<linearGradient id="paint20_linear_2_1496" x1="512.446" y1="415.1" x2="432.52" y2="100.757" gradientUnits="userSpaceOnUse">
<stop stop-color="#965CF2"/>
<stop offset="1" stop-color="#FF8ADC"/>
</linearGradient>
<linearGradient id="paint21_linear_2_1496" x1="517.782" y1="189.639" x2="489.277" y2="230.159" gradientUnits="userSpaceOnUse">
<stop stop-color="#6D6AFE"/>
<stop offset="1" stop-color="#3FB0F7"/>
</linearGradient>
<linearGradient id="paint22_linear_2_1496" x1="426.312" y1="241.154" x2="419.652" y2="250.576" gradientUnits="userSpaceOnUse">
<stop stop-color="#6D6AFE"/>
<stop offset="1" stop-color="#3FB0F7"/>
</linearGradient>
<linearGradient id="paint23_linear_2_1496" x1="431.736" y1="240.545" x2="411.326" y2="256.02" gradientUnits="userSpaceOnUse">
<stop stop-color="#6D6AFE"/>
<stop offset="1" stop-color="#3FB0F7"/>
</linearGradient>
<linearGradient id="paint24_linear_2_1496" x1="709.369" y1="233.99" x2="679.236" y2="334.414" gradientUnits="userSpaceOnUse">
<stop stop-color="#6D6AFE"/>
<stop offset="1" stop-color="#3FB0F7"/>
</linearGradient>
<linearGradient id="paint25_linear_2_1496" x1="686.379" y1="282.997" x2="700.205" y2="240.487" gradientUnits="userSpaceOnUse">
<stop stop-color="#965CF2"/>
<stop offset="1" stop-color="#FF8ADC"/>
</linearGradient>
<linearGradient id="paint26_linear_2_1496" x1="684.191" y1="280.99" x2="696.792" y2="259.533" gradientUnits="userSpaceOnUse">
<stop stop-color="#6D6AFE"/>
<stop offset="1" stop-color="#3FB0F7"/>
</linearGradient>
<linearGradient id="paint27_linear_2_1496" x1="461.614" y1="156.512" x2="458.74" y2="155.185" gradientUnits="userSpaceOnUse">
<stop stop-color="#FF8A78"/>
<stop offset="1" stop-color="#FFA799"/>
</linearGradient>
<linearGradient id="paint28_linear_2_1496" x1="478.971" y1="128.087" x2="472.864" y2="62.4582" gradientUnits="userSpaceOnUse">
<stop stop-color="#965CF2"/>
<stop offset="1" stop-color="#FF8ADC"/>
</linearGradient>
<linearGradient id="paint29_linear_2_1496" x1="404.206" y1="522.144" x2="382.95" y2="623.788" gradientUnits="userSpaceOnUse">
<stop stop-color="#40457F"/>
<stop offset="1" stop-color="#1E2353"/>
</linearGradient>
<linearGradient id="paint30_linear_2_1496" x1="408.879" y1="652.161" x2="400.902" y2="663.608" gradientUnits="userSpaceOnUse">
<stop stop-color="#3773B9"/>
<stop offset="1" stop-color="#003C76"/>
</linearGradient>
<linearGradient id="paint31_linear_2_1496" x1="423.137" y1="533.62" x2="350.679" y2="632.418" gradientUnits="userSpaceOnUse">
<stop stop-color="#40457F"/>
<stop offset="1" stop-color="#1E2353"/>
</linearGradient>
<linearGradient id="paint32_linear_2_1496" x1="368.033" y1="675.502" x2="355.979" y2="678.584" gradientUnits="userSpaceOnUse">
<stop stop-color="#3773B9"/>
<stop offset="1" stop-color="#003C76"/>
</linearGradient>
<linearGradient id="paint33_linear_2_1496" x1="443.494" y1="295.087" x2="458.75" y2="273.292" gradientUnits="userSpaceOnUse">
<stop stop-color="#FF8A78"/>
<stop offset="1" stop-color="#FFA799"/>
</linearGradient>
<linearGradient id="paint34_linear_2_1496" x1="411.725" y1="349.592" x2="429.358" y2="382.676" gradientUnits="userSpaceOnUse">
<stop stop-color="#A77EF7"/>
<stop offset="1" stop-color="#5E65D6"/>
</linearGradient>
<linearGradient id="paint35_linear_2_1496" x1="408.286" y1="403.196" x2="397.817" y2="494.952" gradientUnits="userSpaceOnUse">
<stop stop-color="#A77EF7"/>
<stop offset="1" stop-color="#5E65D6"/>
</linearGradient>
<linearGradient id="paint36_linear_2_1496" x1="408.834" y1="376.476" x2="405.57" y2="384.671" gradientUnits="userSpaceOnUse">
<stop stop-color="#FF8A78"/>
<stop offset="1" stop-color="#FFA799"/>
</linearGradient>
<linearGradient id="paint37_linear_2_1496" x1="419.874" y1="353.541" x2="415.068" y2="362.767" gradientUnits="userSpaceOnUse">
<stop stop-color="#FFB89E"/>
<stop offset="1" stop-color="#FFA799"/>
</linearGradient>
<linearGradient id="paint38_linear_2_1496" x1="409.69" y1="331.089" x2="388.464" y2="343.245" gradientUnits="userSpaceOnUse">
<stop stop-color="#8A4791"/>
<stop offset="1" stop-color="#562E65"/>
</linearGradient>
<linearGradient id="paint39_linear_2_1496" x1="517.272" y1="385.889" x2="531.502" y2="367.099" gradientUnits="userSpaceOnUse">
<stop stop-color="#FF8A78"/>
<stop offset="1" stop-color="#FFA799"/>
</linearGradient>
<linearGradient id="paint40_linear_2_1496" x1="472.982" y1="392.861" x2="477.289" y2="480.278" gradientUnits="userSpaceOnUse">
<stop stop-color="#A77EF7"/>
<stop offset="1" stop-color="#5E65D6"/>
</linearGradient>
<linearGradient id="paint41_linear_2_1496" x1="33.3993" y1="73.3796" x2="53.5392" y2="39.5221" gradientUnits="userSpaceOnUse">
<stop stop-color="#6D6AFE"/>
<stop offset="1" stop-color="#3FB0F7"/>
</linearGradient>
</defs>
</svg>
